# xmcd
#
# Track frame offsets:
# 150
# 20525
# 38463
# 58895
# 79750
# 97817
# 114990
# 128372
# 148647
# 165606
# 183262
# 200886
# 217417
# 234458
# 252107
# 270435
# 290700
# 309540
# 326888
#
# Disc length: 4582 seconds
#
#
# Revision: 3
# Processed by: cddbd v1.5.2PL0 Copyright (c) Steve Scherf et al.
# Submitted via: FreeRIP 2.951 
#
DISCID=1211e413
DTITLE=Ilse DeLange - After The Hurricane
DYEAR=2013
DGENRE=Country
TTITLE0=I'm Not So Tough
TTITLE1=World Of Hurt
TTITLE2=Livin' On Love
TTITLE3=I Still Cry
TTITLE4=The Great Escape
TTITLE5=The Lonely One
TTITLE6=So Incredible
TTITLE7=Miracle
TTITLE8=Puzzle Me
TTITLE9=We're Alright
TTITLE10=Next To Me
TTITLE11=Carousel
TTITLE12=Hurricane
TTITLE13=Winter Of Love
TTITLE14=We Are One
TTITLE15=Blue Bittersweet
TTITLE16=Turn Around
TTITLE17=When It's You
TTITLE18=Ilse DeLange - I'll Know
EXTD=
EXTT0=
EXTT1=
EXTT2=
EXTT3=
EXTT4=
EXTT5=
EXTT6=
EXTT7=
EXTT8=
EXTT9=
EXTT10=
EXTT11=
EXTT12=
EXTT13=
EXTT14=
EXTT15=
EXTT16=
EXTT17=
EXTT18=
PLAYORDER=
